<mxfile host="app.diagrams.net" modified="2021-05-25T19:37:02.939Z" agent="5.0 (Windows)" etag="I03f51HezZe6-q2pmTWd" version="14.7.1" type="github">
  <diagram id="25JqhJ6qg6LS-j05h4Zu" name="Page-1">
    <mxGraphModel dx="1185" dy="668" grid="1" gridSize="10" guides="1" tooltips="1" connect="1" arrows="1" fold="1" page="1" pageScale="1" pageWidth="827" pageHeight="1169" math="0" shadow="0">
      <root>
        <mxCell id="0" />
        <mxCell id="1" parent="0" />
        <mxCell id="w6GL3gUF5BBJXnW4iWcM-4" style="edgeStyle=orthogonalEdgeStyle;rounded=0;orthogonalLoop=1;jettySize=auto;html=1;exitX=0.5;exitY=0.5;exitDx=0;exitDy=0;exitPerimeter=0;entryX=0;entryY=0.5;entryDx=0;entryDy=0;" edge="1" parent="1" source="w6GL3gUF5BBJXnW4iWcM-1" target="w6GL3gUF5BBJXnW4iWcM-3">
          <mxGeometry relative="1" as="geometry" />
        </mxCell>
        <mxCell id="w6GL3gUF5BBJXnW4iWcM-1" value="&lt;div&gt;user&lt;/div&gt;" style="shape=umlActor;verticalLabelPosition=bottom;verticalAlign=top;html=1;outlineConnect=0;" vertex="1" parent="1">
          <mxGeometry x="200" y="662.5" width="30" height="60" as="geometry" />
        </mxCell>
        <mxCell id="w6GL3gUF5BBJXnW4iWcM-3" value="&lt;p style=&quot;margin: 0px ; margin-top: 4px ; text-align: center ; text-decoration: underline&quot;&gt;&lt;b&gt;WebClient&lt;/b&gt;&lt;/p&gt;&lt;hr&gt;&lt;p style=&quot;margin: 0px ; margin-left: 8px&quot;&gt;+ addRecord(data): bool&lt;/p&gt;&lt;p style=&quot;margin: 0px ; margin-left: 8px&quot;&gt;+ viewRecord(id): data&lt;/p&gt;&lt;p style=&quot;margin: 0px ; margin-left: 8px&quot;&gt;+ listRecord(): list of data&lt;/p&gt;&lt;p style=&quot;margin: 0px ; margin-left: 8px&quot;&gt;+ makeRequest(request_parametrs):httpRequest&lt;/p&gt;" style="verticalAlign=top;align=left;overflow=fill;fontSize=12;fontFamily=Helvetica;html=1;" vertex="1" parent="1">
          <mxGeometry x="320" y="645" width="290" height="95" as="geometry" />
        </mxCell>
        <mxCell id="w6GL3gUF5BBJXnW4iWcM-5" value="Server" style="swimlane;fontStyle=1;align=center;verticalAlign=top;childLayout=stackLayout;horizontal=1;startSize=26;horizontalStack=0;resizeParent=1;resizeParentMax=0;resizeLast=0;collapsible=1;marginBottom=0;" vertex="1" parent="1">
          <mxGeometry x="320" y="445" width="280" height="110" as="geometry" />
        </mxCell>
        <mxCell id="w6GL3gUF5BBJXnW4iWcM-6" value="+ urls: urlpaterns&#xa;+ views: function list&#xa;" style="text;strokeColor=none;fillColor=none;align=left;verticalAlign=top;spacingLeft=4;spacingRight=4;overflow=hidden;rotatable=0;points=[[0,0.5],[1,0.5]];portConstraint=eastwest;" vertex="1" parent="w6GL3gUF5BBJXnW4iWcM-5">
          <mxGeometry y="26" width="280" height="34" as="geometry" />
        </mxCell>
        <mxCell id="w6GL3gUF5BBJXnW4iWcM-7" value="" style="line;strokeWidth=1;fillColor=none;align=left;verticalAlign=middle;spacingTop=-1;spacingLeft=3;spacingRight=3;rotatable=0;labelPosition=right;points=[];portConstraint=eastwest;" vertex="1" parent="w6GL3gUF5BBJXnW4iWcM-5">
          <mxGeometry y="60" width="280" height="8" as="geometry" />
        </mxCell>
        <mxCell id="w6GL3gUF5BBJXnW4iWcM-8" value="+ process_request(httpRequest): httpResponse &#xa;+ select_view(http_request): function" style="text;strokeColor=none;fillColor=none;align=left;verticalAlign=top;spacingLeft=4;spacingRight=4;overflow=hidden;rotatable=0;points=[[0,0.5],[1,0.5]];portConstraint=eastwest;" vertex="1" parent="w6GL3gUF5BBJXnW4iWcM-5">
          <mxGeometry y="68" width="280" height="42" as="geometry" />
        </mxCell>
        <mxCell id="w6GL3gUF5BBJXnW4iWcM-9" value="" style="endArrow=classic;html=1;exitX=1;exitY=0.853;exitDx=0;exitDy=0;exitPerimeter=0;entryX=1.007;entryY=0.222;entryDx=0;entryDy=0;entryPerimeter=0;" edge="1" parent="1" source="w6GL3gUF5BBJXnW4iWcM-3" target="w6GL3gUF5BBJXnW4iWcM-8">
          <mxGeometry width="50" height="50" relative="1" as="geometry">
            <mxPoint x="660" y="750" as="sourcePoint" />
            <mxPoint x="710" y="700" as="targetPoint" />
            <Array as="points">
              <mxPoint x="740" y="726" />
              <mxPoint x="740" y="620" />
              <mxPoint x="740" y="522" />
            </Array>
          </mxGeometry>
        </mxCell>
        <mxCell id="w6GL3gUF5BBJXnW4iWcM-10" value="httpRequest" style="edgeLabel;html=1;align=center;verticalAlign=middle;resizable=0;points=[];" vertex="1" connectable="0" parent="w6GL3gUF5BBJXnW4iWcM-9">
          <mxGeometry x="-0.0022" y="2" relative="1" as="geometry">
            <mxPoint as="offset" />
          </mxGeometry>
        </mxCell>
        <mxCell id="w6GL3gUF5BBJXnW4iWcM-16" value="" style="endArrow=open;html=1;endSize=12;startArrow=diamondThin;startSize=14;startFill=1;edgeStyle=orthogonalEdgeStyle;align=left;verticalAlign=bottom;" edge="1" parent="1">
          <mxGeometry x="0.2114" relative="1" as="geometry">
            <mxPoint x="316" y="498" as="sourcePoint" />
            <mxPoint x="210" y="420" as="targetPoint" />
            <Array as="points">
              <mxPoint x="210" y="498" />
              <mxPoint x="210" y="430" />
            </Array>
            <mxPoint as="offset" />
          </mxGeometry>
        </mxCell>
        <mxCell id="w6GL3gUF5BBJXnW4iWcM-23" value="Views" style="swimlane;fontStyle=1;align=center;verticalAlign=top;childLayout=stackLayout;horizontal=1;startSize=26;horizontalStack=0;resizeParent=1;resizeParentMax=0;resizeLast=0;collapsible=1;marginBottom=0;" vertex="1" parent="1">
          <mxGeometry x="110" y="170" width="200" height="250" as="geometry" />
        </mxCell>
        <mxCell id="w6GL3gUF5BBJXnW4iWcM-24" value="+ models: Model" style="text;strokeColor=none;fillColor=none;align=left;verticalAlign=top;spacingLeft=4;spacingRight=4;overflow=hidden;rotatable=0;points=[[0,0.5],[1,0.5]];portConstraint=eastwest;" vertex="1" parent="w6GL3gUF5BBJXnW4iWcM-23">
          <mxGeometry y="26" width="200" height="26" as="geometry" />
        </mxCell>
        <mxCell id="w6GL3gUF5BBJXnW4iWcM-25" value="" style="line;strokeWidth=1;fillColor=none;align=left;verticalAlign=middle;spacingTop=-1;spacingLeft=3;spacingRight=3;rotatable=0;labelPosition=right;points=[];portConstraint=eastwest;" vertex="1" parent="w6GL3gUF5BBJXnW4iWcM-23">
          <mxGeometry y="52" width="200" height="8" as="geometry" />
        </mxCell>
        <mxCell id="w6GL3gUF5BBJXnW4iWcM-26" value="+ add_ecg(data): http_response&#xa;+ add_file(data): http_response&#xa;+ add_patient(data): http_response&#xa;+ add_or_inf(data): http_response&#xa;+ list_ecg():http_response&#xa;+ list_file(): http_response&#xa;+ list_patient():http_response&#xa;+ list_or_inf():http_response&#xa;+ view_ecg(id): http_response&#xa;+ view_file(id): http_response&#xa;+ view_patient(id): http_response&#xa;+ view_or_inf(id): http_response&#xa;+ download_file(id): file&#xa;&#xa;&#xa;&#xa;&#xa;&#xa;" style="text;strokeColor=none;fillColor=none;align=left;verticalAlign=top;spacingLeft=4;spacingRight=4;overflow=hidden;rotatable=0;points=[[0,0.5],[1,0.5]];portConstraint=eastwest;" vertex="1" parent="w6GL3gUF5BBJXnW4iWcM-23">
          <mxGeometry y="60" width="200" height="190" as="geometry" />
        </mxCell>
      </root>
    </mxGraphModel>
  </diagram>
</mxfile>
